<svg width="99" height="111" viewBox="0 0 99 111" fill="none" xmlns="http://www.w3.org/2000/svg">
<path d="M26.2109 109.266C28.4295 109.266 30.3069 108.498 31.8429 106.962C33.4642 105.34 34.3175 103.42 34.4029 101.202V29.5216C34.4029 27.4736 33.5922 25.7669 31.9709 24.4016C30.3495 22.9509 28.4295 22.2256 26.2109 22.2256H24.6749L24.5469 20.9456H50.5309C53.1762 20.9456 56.0349 20.6896 59.1069 20.1776C62.2642 19.6656 64.4829 19.1536 65.7629 18.6416V34.7696H64.4829V32.4656C64.4829 30.4176 63.7575 28.6683 62.3069 27.2176C60.9415 25.7669 59.2775 24.9989 57.3149 24.9136H42.7229V64.4656H67.0429C68.7495 64.3803 70.2002 63.7403 71.3949 62.5456C72.5895 61.3509 73.1869 59.8576 73.1869 58.0656V56.2736H74.4669V76.4976H73.1869V74.5776C73.1869 72.8709 72.5895 71.4203 71.3949 70.2256C70.2855 69.0309 68.8775 68.3909 67.1709 68.3056H42.7229V106.578H69.9869C76.3015 106.578 81.1229 105.17 84.4509 102.354C87.7789 99.5376 90.5522 95.3563 92.7709 89.8096H94.0509L86.6269 110.546H24.5469V109.266H26.2109Z" fill="black"/>
<path fill-rule="evenodd" clip-rule="evenodd" d="M21.4782 11.1537C9.83077 19.8013 2.91039 30.3065 0.717054 42.6694C-1.52715 54.9637 1.4965 66.6948 9.78802 77.8626C16.2231 86.5299 23.9161 92.2788 32.8672 95.109V85.9852C27.3121 82.7889 22.2568 78.123 17.7014 71.9873C10.0712 61.7102 6.79374 51.2835 7.86906 40.7073C9.0129 30.0801 12.0232 18.1735 21.4782 11.1537ZM77.0263 85.9713C88.7422 77.2729 95.7223 66.7765 97.9665 54.4821C100.16 42.1193 97.1107 30.354 88.8192 19.1861C80.5277 8.01831 70.173 1.73014 57.7552 0.321605C45.2865 -1.15544 33.1941 2.45527 21.4782 11.1537C30.9332 4.13392 43.1673 4.72235 53.6023 6.75274C64.1059 8.73225 73.1728 14.8606 80.8031 25.1377C88.4333 35.4149 91.6765 45.867 90.5326 56.4941C89.4573 67.0703 86.4812 78.9515 77.0263 85.9713ZM77.0263 85.9713C66.6144 93.7016 55.8947 97.4139 44.8672 97.1084V90.4614C55.3557 92.4305 67.5917 92.976 77.0263 85.9713Z" fill="black"/>
</svg>
